# xmcd
#
# Track frame offsets:
# 150
# 18185
# 34625
# 45820
# 58897
# 74410
# 84905
# 101392
# 114405
# 129970
# 142897
# 152667
#
# Disc length: 2211 seconds
#
#
# Revision: 0
# Processed by: cddbd v1.5.1PL0 Copyright (c) Steve Scherf et al.
# Submitted via: FreeRIP 2.30 
#
DISCID=8808a10c
DTITLE=Imperials and Stamps Quartet - Gospel Side Of Elvis
DYEAR=2004
DGENRE=Gospel
TTITLE0=How Great Thou Art
TTITLE1=Swing Low Sweet Chariot
TTITLE2=Where Could I Go
TTITLE3=Peace In The Valley
TTITLE4=So High
TTITLE5=Bosom Of Abraham
TTITLE6=His Hand In Mine
TTITLE7=I've Got Confidence
TTITLE8=Lead Me, Guide Me
TTITLE9=He Touched Me
TTITLE10=Sweet Spirit
TTITLE11=Blue Christmas
EXTD=
EXTT0=
EXTT1=
EXTT2=
EXTT3=
EXTT4=
EXTT5=
EXTT6=
EXTT7=
EXTT8=
EXTT9=
EXTT10=
EXTT11=
PLAYORDER=
